<svg viewBox="0 0 1100 820" xmlns="http://www.w3.org/2000/svg" font-family="Arial, sans-serif" font-size="11">

  <!-- Background -->
  <rect width="1100" height="820" fill="#ffffff"/>

  <!-- Title -->
  <text x="550" y="28" text-anchor="middle" font-size="17" font-weight="bold" fill="#111">Fixed-Point Radix-2 DIT FFT — RTL Module Hierarchy</text>
  <text x="550" y="46" text-anchor="middle" font-size="11" fill="#555">N=1024, parameterized word length W ∈ {8,10,12,14,16} bit, Artix-7 FPGA</text>

  <!-- Arrow markers -->
  <defs>
    <marker id="blk" markerWidth="8" markerHeight="6" refX="7" refY="3" orient="auto">
      <polygon points="0 0,8 3,0 6" fill="#111"/>
    </marker>
    <marker id="gry" markerWidth="7" markerHeight="5" refX="6" refY="2.5" orient="auto">
      <polygon points="0 0,7 2.5,0 5" fill="#888"/>
    </marker>
    <marker id="blu" markerWidth="7" markerHeight="5" refX="6" refY="2.5" orient="auto">
      <polygon points="0 0,7 2.5,0 5" fill="#1565C0"/>
    </marker>
  </defs>

  <!-- ═══════════════════════════════════════════════════════
       OUTER: fft_top.v
  ════════════════════════════════════════════════════════════ -->
  <rect x="14" y="60" width="770" height="740" rx="7" fill="white" stroke="black" stroke-width="2.5"/>
  <text x="399" y="80" text-anchor="middle" font-size="13" font-weight="bold" fill="#111">fft_top.v — Top-Level FFT Controller (Memory-Based FSM)</text>

  <!-- Left ports of fft_top -->
  <!-- clk -->
  <line x1="0" y1="120" x2="14" y2="120" stroke="#111" stroke-width="1.5" marker-end="url(#blk)"/>
  <text x="2" y="117" font-size="9" fill="#333">clk</text>
  <!-- rst -->
  <line x1="0" y1="136" x2="14" y2="136" stroke="#111" stroke-width="1.5" marker-end="url(#blk)"/>
  <text x="2" y="133" font-size="9" fill="#333">rst</text>
  <!-- start -->
  <line x1="0" y1="152" x2="14" y2="152" stroke="#111" stroke-width="1.5" marker-end="url(#blk)"/>
  <text x="0" y="149" font-size="9" fill="#333">start</text>
  <!-- rd_addr -->
  <line x1="0" y1="168" x2="14" y2="168" stroke="#111" stroke-width="1.5" marker-end="url(#blk)"/>
  <text x="0" y="165" font-size="9" fill="#333">rd_addr[9:0]</text>

  <!-- Right ports of fft_top -->
  <!-- done -->
  <line x1="784" y1="120" x2="798" y2="120" stroke="#111" stroke-width="1.5" marker-end="url(#blk)"/>
  <text x="800" y="124" font-size="9" fill="#333">done</text>
  <!-- rd_data_r -->
  <line x1="784" y1="136" x2="798" y2="136" stroke="#111" stroke-width="1.5" marker-end="url(#blk)"/>
  <text x="800" y="140" font-size="9" fill="#333">rd_data_r[W-1:0]</text>
  <!-- rd_data_i -->
  <line x1="784" y1="152" x2="798" y2="152" stroke="#111" stroke-width="1.5" marker-end="url(#blk)"/>
  <text x="800" y="156" font-size="9" fill="#333">rd_data_i[W-1:0]</text>

  <!-- ═══════════════════════════════════════
       MODULE 1: tdp_ram (×2)
  ════════════════════════════════════════════ -->
  <rect x="34" y="100" width="190" height="200" rx="5" fill="white" stroke="black" stroke-width="2"/>
  <text x="129" y="118" text-anchor="middle" font-weight="bold" fill="#111">tdp_ram.v  (×2)</text>
  <text x="129" y="130" text-anchor="middle" font-size="9" fill="#555">u_ram_r  /  u_ram_i</text>
  <line x1="44" y1="135" x2="214" y2="135" stroke="#ccc"/>

  <!-- Port table inside tdp_ram -->
  <text x="44" y="149" font-size="9" font-weight="bold" fill="#333">Port A (FSM side)</text>
  <text x="44" y="162" font-size="9" fill="#555">  addr_a [AW-1:0]  →</text>
  <text x="44" y="174" font-size="9" fill="#555">  din_a  [DW-1:0]  →</text>
  <text x="44" y="186" font-size="9" fill="#555">  we_a              →</text>
  <text x="44" y="198" font-size="9" fill="#555">  dout_a [DW-1:0]  ←</text>
  <line x1="44" y1="205" x2="214" y2="205" stroke="#eee"/>
  <text x="44" y="218" font-size="9" font-weight="bold" fill="#333">Port B (FSM / readout)</text>
  <text x="44" y="231" font-size="9" fill="#555">  addr_b [AW-1:0]  →</text>
  <text x="44" y="243" font-size="9" fill="#555">  din_b  [DW-1:0]  →</text>
  <text x="44" y="255" font-size="9" fill="#555">  we_b              →</text>
  <text x="44" y="267" font-size="9" fill="#555">  dout_b [DW-1:0]  ←</text>
  <line x1="44" y1="274" x2="214" y2="274" stroke="#eee"/>
  <text x="129" y="286" text-anchor="middle" font-size="9" fill="#888">1024×W-bit per array</text>
  <text x="129" y="297" text-anchor="middle" font-size="9" fill="#888">→ RAMB18E1 (block)</text>

  <!-- ═══════════════════════════════════════
       MODULE 2: twiddle_rom.v
  ════════════════════════════════════════════ -->
  <rect x="34" y="320" width="190" height="155" rx="5" fill="white" stroke="black" stroke-width="2"/>
  <text x="129" y="338" text-anchor="middle" font-weight="bold" fill="#111">twiddle_rom.v</text>
  <line x1="44" y1="343" x2="214" y2="343" stroke="#ccc"/>
  <text x="44" y="357" font-size="9" font-weight="bold" fill="#333">Inputs</text>
  <text x="44" y="370" font-size="9" fill="#555">  clk</text>
  <text x="44" y="382" font-size="9" fill="#555">  addr [AW-2:0]</text>
  <line x1="44" y1="389" x2="214" y2="389" stroke="#eee"/>
  <text x="44" y="402" font-size="9" font-weight="bold" fill="#333">Outputs</text>
  <text x="44" y="415" font-size="9" fill="#555">  w_cos [TW-1:0]</text>
  <text x="44" y="427" font-size="9" fill="#555">  w_sin [TW-1:0]</text>
  <line x1="44" y1="434" x2="214" y2="434" stroke="#eee"/>
  <text x="129" y="447" text-anchor="middle" font-size="9" fill="#888">512 entries, Q1.(TW-1)</text>
  <text x="129" y="458" text-anchor="middle" font-size="9" fill="#888">loaded via $readmemh</text>
  <text x="129" y="469" text-anchor="middle" font-size="9" fill="#888">→ RAMB18E1 (block)</text>

  <!-- ═══════════════════════════════════════
       MODULE 3: complex_mult.v
  ════════════════════════════════════════════ -->
  <rect x="280" y="100" width="195" height="200" rx="5" fill="white" stroke="black" stroke-width="2"/>
  <text x="377" y="118" text-anchor="middle" font-weight="bold" fill="#111">complex_mult.v</text>
  <line x1="290" y1="123" x2="465" y2="123" stroke="#ccc"/>
  <text x="290" y="137" font-size="9" font-weight="bold" fill="#333">Inputs</text>
  <text x="290" y="150" font-size="9" fill="#555">  br  [DW-1:0]   data real</text>
  <text x="290" y="162" font-size="9" fill="#555">  bi  [DW-1:0]   data imag</text>
  <text x="290" y="174" font-size="9" fill="#555">  cr  [TW-1:0]   cos (twiddle)</text>
  <text x="290" y="186" font-size="9" fill="#555">  ci  [TW-1:0]  -sin (twiddle)</text>
  <line x1="290" y1="193" x2="465" y2="193" stroke="#eee"/>
  <text x="290" y="207" font-size="9" font-weight="bold" fill="#333">Outputs</text>
  <text x="290" y="220" font-size="9" fill="#555">  tr  [DW:0]    result real (DW+1b)</text>
  <text x="290" y="232" font-size="9" fill="#555">  ti  [DW:0]    result imag (DW+1b)</text>
  <line x1="290" y1="239" x2="465" y2="239" stroke="#eee"/>
  <text x="377" y="253" text-anchor="middle" font-size="9" fill="#888">t = W_N^k · b</text>
  <text x="377" y="265" text-anchor="middle" font-size="9" fill="#888">round half-up, no mid-sat</text>
  <text x="377" y="277" text-anchor="middle" font-size="9" fill="#888">DSP48E1 (W≥12) / LUT (W&lt;12)</text>
  <text x="377" y="289" text-anchor="middle" font-size="9" fill="#888">Q1.(W-1) × Q1.(TW-1)</text>

  <!-- ═══════════════════════════════════════
       MODULE 4: butterfly.v
  ════════════════════════════════════════════ -->
  <rect x="280" y="320" width="195" height="235" rx="5" fill="white" stroke="black" stroke-width="2"/>
  <text x="377" y="338" text-anchor="middle" font-weight="bold" fill="#111">butterfly.v</text>
  <line x1="290" y1="343" x2="465" y2="343" stroke="#ccc"/>
  <text x="290" y="357" font-size="9" font-weight="bold" fill="#333">Inputs</text>
  <text x="290" y="370" font-size="9" fill="#555">  ar     [DW-1:0]   top real</text>
  <text x="290" y="382" font-size="9" fill="#555">  ai     [DW-1:0]   top imag</text>
  <text x="290" y="394" font-size="9" fill="#555">  br     [DW-1:0]   bot real</text>
  <text x="290" y="406" font-size="9" fill="#555">  bi     [DW-1:0]   bot imag</text>
  <text x="290" y="418" font-size="9" fill="#555">  w_cos  [TW-1:0]   cos</text>
  <text x="290" y="430" font-size="9" fill="#555">  w_sin  [TW-1:0]   sin</text>
  <line x1="290" y1="437" x2="465" y2="437" stroke="#eee"/>
  <text x="290" y="451" font-size="9" font-weight="bold" fill="#333">Outputs</text>
  <text x="290" y="464" font-size="9" fill="#555">  o0r    [DW-1:0]   top-out real</text>
  <text x="290" y="476" font-size="9" fill="#555">  o0i    [DW-1:0]   top-out imag</text>
  <text x="290" y="488" font-size="9" fill="#555">  o1r    [DW-1:0]   bot-out real</text>
  <text x="290" y="500" font-size="9" fill="#555">  o1i    [DW-1:0]   bot-out imag</text>
  <line x1="290" y1="507" x2="465" y2="507" stroke="#eee"/>
  <text x="377" y="522" text-anchor="middle" font-size="9" fill="#888">o0 = (a + t + 1) &gt;&gt; 1</text>
  <text x="377" y="534" text-anchor="middle" font-size="9" fill="#888">o1 = (a − t + 1) &gt;&gt; 1</text>
  <text x="377" y="546" text-anchor="middle" font-size="9" fill="#888">÷2 prevents overflow</text>

  <!-- ═══════════════════════════════════════
       MODULE 5: FSM (inside fft_top)
  ════════════════════════════════════════════ -->
  <rect x="525" y="100" width="230" height="375" rx="5" fill="white" stroke="black" stroke-width="2"/>
  <text x="640" y="118" text-anchor="middle" font-weight="bold" fill="#111">FSM Controller</text>
  <text x="640" y="130" text-anchor="middle" font-size="9" fill="#555">(inside fft_top.v)</text>
  <line x1="535" y1="135" x2="745" y2="135" stroke="#ccc"/>

  <!-- FSM states -->
  <text x="540" y="150" font-size="9" font-weight="bold" fill="#333">States</text>
  <!-- IDLE -->
  <rect x="560" y="157" width="160" height="22" rx="3" fill="white" stroke="#555" stroke-width="1"/>
  <text x="640" y="172" text-anchor="middle" font-size="9" fill="#111">S_IDLE — wait for start</text>
  <!-- BR_ISSUE -->
  <rect x="560" y="185" width="160" height="22" rx="3" fill="white" stroke="#555" stroke-width="1"/>
  <text x="640" y="200" text-anchor="middle" font-size="9" fill="#111">S_BR_ISSUE — drive bit-rev addr</text>
  <!-- BR_WAIT -->
  <rect x="560" y="213" width="160" height="22" rx="3" fill="white" stroke="#555" stroke-width="1"/>
  <text x="640" y="228" text-anchor="middle" font-size="9" fill="#111">S_BR_WAIT — wait RAM latch</text>
  <!-- BR_APPLY -->
  <rect x="560" y="241" width="160" height="22" rx="3" fill="white" stroke="#555" stroke-width="1"/>
  <text x="640" y="256" text-anchor="middle" font-size="9" fill="#111">S_BR_APPLY — write swapped</text>
  <!-- BF_ISSUE -->
  <rect x="560" y="269" width="160" height="22" rx="3" fill="white" stroke="#555" stroke-width="1"/>
  <text x="640" y="284" text-anchor="middle" font-size="9" fill="#111">S_BF_ISSUE — drive BF addrs</text>
  <!-- BF_WAIT -->
  <rect x="560" y="297" width="160" height="22" rx="3" fill="white" stroke="#555" stroke-width="1"/>
  <text x="640" y="312" text-anchor="middle" font-size="9" fill="#111">S_BF_WAIT — pipeline delay</text>
  <!-- BF_APPLY -->
  <rect x="560" y="325" width="160" height="22" rx="3" fill="white" stroke="#555" stroke-width="1"/>
  <text x="640" y="340" text-anchor="middle" font-size="9" fill="#111">S_BF_APPLY — write result</text>
  <!-- DONE -->
  <rect x="560" y="353" width="160" height="22" rx="3" fill="white" stroke="#555" stroke-width="1"/>
  <text x="640" y="368" text-anchor="middle" font-size="9" fill="#111">S_DONE — assert done=1</text>

  <!-- State arrows -->
  <line x1="640" y1="179" x2="640" y2="185" stroke="#555" stroke-width="1" marker-end="url(#gry)"/>
  <line x1="640" y1="207" x2="640" y2="213" stroke="#555" stroke-width="1" marker-end="url(#gry)"/>
  <line x1="640" y1="235" x2="640" y2="241" stroke="#555" stroke-width="1" marker-end="url(#gry)"/>
  <line x1="640" y1="263" x2="640" y2="269" stroke="#555" stroke-width="1" marker-end="url(#gry)"/>
  <line x1="640" y1="291" x2="640" y2="297" stroke="#555" stroke-width="1" marker-end="url(#gry)"/>
  <line x1="640" y1="319" x2="640" y2="325" stroke="#555" stroke-width="1" marker-end="url(#gry)"/>
  <line x1="640" y1="347" x2="640" y2="353" stroke="#555" stroke-width="1" marker-end="url(#gry)"/>

  <line x1="535" y1="381" x2="745" y2="381" stroke="#ccc"/>
  <text x="540" y="395" font-size="9" font-weight="bold" fill="#333">Counters / Registers</text>
  <text x="540" y="408" font-size="9" fill="#555">  stage [AW-1:0]   — current stage (0..9)</text>
  <text x="540" y="420" font-size="9" fill="#555">  kbase [AW:0]     — group base address</text>
  <text x="540" y="432" font-size="9" fill="#555">  j     [AW-1:0]   — butterfly index in group</text>
  <text x="540" y="444" font-size="9" fill="#555">  m, hm, step      — stage geometry</text>
  <text x="540" y="456" font-size="9" fill="#555">  br_i  [AW-1:0]   — bit-reversal counter</text>
  <text x="540" y="468" font-size="9" fill="#555">  tidx  [AW-2:0]   — twiddle ROM index</text>

  <!-- ═══════════════════════════════════════
       Internal connections (arrows between modules)
  ════════════════════════════════════════════ -->
  <!-- tdp_ram → FSM: dout_a -->
  <line x1="224" y1="175" x2="280" y2="420" stroke="#888" stroke-width="1.2" stroke-dasharray="4,3" marker-end="url(#gry)"/>
  <!-- FSM → tdp_ram: addr/we/din -->
  <line x1="280" y1="440" x2="224" y2="195" stroke="#888" stroke-width="1.2" stroke-dasharray="4,3" marker-end="url(#gry)"/>

  <!-- complex_mult is inside butterfly (show as sub-block already done) -->
  <!-- butterfly ← tdp_ram dout -->
  <line x1="224" y1="220" x2="280" y2="370" stroke="#1565C0" stroke-width="1.2" marker-end="url(#blu)"/>
  <text x="245" y="295" font-size="8" fill="#1565C0" transform="rotate(-55,245,295)">dout_a/b</text>

  <!-- twiddle_rom → butterfly: wc/ws -->
  <line x1="224" y1="415" x2="280" y2="418" stroke="#1565C0" stroke-width="1.2" marker-end="url(#blu)"/>
  <text x="233" y="411" font-size="8" fill="#1565C0">w_cos / w_sin</text>

  <!-- butterfly → FSM: o0/o1 -->
  <line x1="475" y1="400" x2="525" y2="350" stroke="#1565C0" stroke-width="1.2" marker-end="url(#blu)"/>
  <text x="483" y="378" font-size="8" fill="#1565C0">o0r/i,o1r/i</text>

  <!-- FSM → tdp_ram addr_a/b writeback -->
  <line x1="525" y1="400" x2="224" y2="240" stroke="#888" stroke-width="1.2" stroke-dasharray="3,3" marker-end="url(#gry)"/>

  <!-- ═══════════════════════════════════════
       PARAMETERS BOX
  ════════════════════════════════════════════ -->
  <rect x="34" y="510" width="190" height="110" rx="5" fill="white" stroke="black" stroke-width="1.5"/>
  <text x="129" y="527" text-anchor="middle" font-weight="bold" fill="#111">Parameters</text>
  <line x1="44" y1="532" x2="214" y2="532" stroke="#ccc"/>
  <text x="44" y="546" font-size="9" fill="#555">  DW   — data word length</text>
  <text x="44" y="558" font-size="9" fill="#555">  TW   — twiddle word length</text>
  <text x="44" y="570" font-size="9" fill="#555">  N    — FFT size (1024)</text>
  <text x="44" y="582" font-size="9" fill="#555">  AW   — log2(N) = 10</text>
  <text x="44" y="594" font-size="9" fill="#555">  COS_FILE, SIN_FILE</text>
  <text x="129" y="612" text-anchor="middle" font-size="9" fill="#888">single param DW drives all widths</text>

  <!-- ═══════════════════════════════════════
       TESTBENCHES (right side, outside fft_top)
  ════════════════════════════════════════════ -->
  <rect x="810" y="60" width="278" height="370" rx="7" fill="white" stroke="black" stroke-width="2"/>
  <text x="949" y="80" text-anchor="middle" font-size="13" font-weight="bold" fill="#111">Testbenches</text>

  <!-- tb_butterfly -->
  <rect x="825" y="92" width="248" height="145" rx="5" fill="white" stroke="black" stroke-width="2"/>
  <text x="949" y="110" text-anchor="middle" font-weight="bold" fill="#111">tb_butterfly.v</text>
  <line x1="835" y1="115" x2="1063" y2="115" stroke="#ccc"/>
  <text x="835" y="129" font-size="9" font-weight="bold" fill="#333">Inputs driven</text>
  <text x="835" y="142" font-size="9" fill="#555">  ar, ai, br, bi [DW-1:0]</text>
  <text x="835" y="154" font-size="9" fill="#555">  w_cos, w_sin   [TW-1:0]</text>
  <line x1="835" y1="160" x2="1063" y2="160" stroke="#eee"/>
  <text x="835" y="173" font-size="9" font-weight="bold" fill="#333">Outputs checked</text>
  <text x="835" y="186" font-size="9" fill="#555">  o0r, o0i, o1r, o1i [DW-1:0]</text>
  <line x1="835" y1="192" x2="1063" y2="192" stroke="#eee"/>
  <text x="949" y="206" text-anchor="middle" font-size="9" fill="#888">200 random vectors</text>
  <text x="949" y="218" text-anchor="middle" font-size="9" fill="#888">from gen_bf_vectors.py</text>
  <text x="949" y="230" text-anchor="middle" font-size="9" font-weight="bold" fill="#2E7D32">→ PASS: all 200 bit-exact</text>

  <!-- tb_fft_top -->
  <rect x="825" y="250" width="248" height="165" rx="5" fill="white" stroke="black" stroke-width="2"/>
  <text x="949" y="268" text-anchor="middle" font-weight="bold" fill="#111">tb_fft_top.v</text>
  <line x1="835" y1="273" x2="1063" y2="273" stroke="#ccc"/>
  <text x="835" y="287" font-size="9" font-weight="bold" fill="#333">Preloads</text>
  <text x="835" y="300" font-size="9" fill="#555">  dut.u_ram_r.mem[i]</text>
  <text x="835" y="312" font-size="9" fill="#555">  dut.u_ram_i.mem[i]</text>
  <text x="835" y="324" font-size="9" fill="#555">  tw_cos.hex / tw_sin.hex</text>
  <line x1="835" y1="330" x2="1063" y2="330" stroke="#eee"/>
  <text x="835" y="343" font-size="9" font-weight="bold" fill="#333">Checks (after done=1)</text>
  <text x="835" y="356" font-size="9" fill="#555">  1024 bins vs exp_real/imag.hex</text>
  <text x="835" y="368" font-size="9" fill="#555">  errors / maxerr counters</text>
  <line x1="835" y1="374" x2="1063" y2="374" stroke="#eee"/>
  <text x="949" y="388" text-anchor="middle" font-size="9" font-weight="bold" fill="#2E7D32">→ PASS: all 1024 bins bit-exact</text>
  <text x="949" y="400" text-anchor="middle" font-size="9" fill="#888">5 signals × W=12 &amp; W=16</text>

  <!-- Golden Model box -->
  <rect x="810" y="450" width="278" height="130" rx="7" fill="white" stroke="black" stroke-width="2"/>
  <text x="949" y="469" text-anchor="middle" font-size="13" font-weight="bold" fill="#111">Golden Model (Python)</text>
  <line x1="820" y1="474" x2="1078" y2="474" stroke="#ccc"/>
  <text x="820" y="488" font-size="9" font-weight="bold" fill="#333">golden_model.py</text>
  <text x="820" y="500" font-size="9" fill="#555">  → Bit-accurate integer FFT</text>
  <text x="820" y="512" font-size="9" fill="#555">  → SQNR for 5 signal types × 5 widths</text>
  <text x="820" y="524" font-size="9" fill="#555">  → Test vectors + expected output hex</text>
  <text x="820" y="536" font-size="9" fill="#555">  → Twiddle ROM hex (cos/sin)</text>
  <line x1="820" y1="543" x2="1078" y2="543" stroke="#eee"/>
  <text x="820" y="556" font-size="9" font-weight="bold" fill="#333">plot_resource_tradeoff.py</text>
  <text x="820" y="568" font-size="9" fill="#555">  → Reads Vivado .rpt files</text>
  <text x="820" y="580" font-size="9" fill="#555">  → Plots LUT/DSP/BRAM vs SQNR</text>

  <!-- Arrows: testbench ↔ modules -->
  <line x1="784" y1="200" x2="825" y2="170" stroke="#888" stroke-width="1.2" stroke-dasharray="4,3" marker-end="url(#gry)"/>
  <line x1="784" y1="380" x2="825" y2="340" stroke="#888" stroke-width="1.2" stroke-dasharray="4,3" marker-end="url(#gry)"/>

  <!-- hex files arrow: golden→testbench -->
  <line x1="949" y1="450" x2="949" y2="415" stroke="#888" stroke-width="1.2" stroke-dasharray="4,3" marker-end="url(#gry)"/>
  <text x="953" y="435" font-size="8" fill="#888">hex files</text>

  <!-- Vivado reports: fft_top → golden -->
  <line x1="784" y1="500" x2="810" y2="510" stroke="#888" stroke-width="1.2" stroke-dasharray="4,3" marker-end="url(#gry)"/>
  <text x="790" y="495" font-size="8" fill="#888">.rpt</text>

  <!-- Legend bottom -->
  <rect x="34" y="640" width="750" height="55" rx="5" fill="white" stroke="#aaa" stroke-width="1"/>
  <text x="409" y="657" text-anchor="middle" font-size="10" font-weight="bold" fill="#333">Legend</text>
  <line x1="50" y1="672" x2="90" y2="672" stroke="#111" stroke-width="1.5" marker-end="url(#blk)"/>
  <text x="95" y="676" font-size="9" fill="#333">Primary data/control (synchronous)</text>
  <line x1="280" y1="672" x2="320" y2="672" stroke="#1565C0" stroke-width="1.5" marker-end="url(#blu)"/>
  <text x="325" y="676" font-size="9" fill="#1565C0">Internal datapath (real/imag)</text>
  <line x1="510" y1="672" x2="550" y2="672" stroke="#888" stroke-width="1.5" stroke-dasharray="4,3" marker-end="url(#gry)"/>
  <text x="555" y="676" font-size="9" fill="#888">File exchange / hierarchical ref</text>
  <text x="409" y="688" text-anchor="middle" font-size="9" fill="#555">
    All modules parameterized by DW (data width) and TW (twiddle width). Set DW=TW=W for uniform precision.
  </text>

</svg>